<?xml version="1.0" standalone="no"?>
<!DOCTYPE svg PUBLIC "-//W3C//DTD SVG 20010904//EN"
 "http://www.w3.org/TR/2001/REC-SVG-20010904/DTD/svg10.dtd">
<svg version="1.0" xmlns="http://www.w3.org/2000/svg"
 width="498.000000pt" height="230.000000pt" viewBox="0 0 498.000000 230.000000"
 preserveAspectRatio="xMidYMid meet">

<g transform="translate(0.000000,230.000000) scale(0.100000,-0.100000)"
fill="#000000" stroke="none">
<path d="M4400 2046 c0 -39 163 -116 245 -116 50 0 55 9 23 40 -67 63 -268
119 -268 76z"/>
<path d="M4746 1871 c-35 -35 -61 -100 -292 -707 -140 -368 -270 -711 -290
-762 -42 -109 -77 -154 -139 -178 -44 -16 -112 -16 -160 1 -16 5 -17 5 -4 -4
35 -23 100 -30 151 -16 91 23 115 59 208 305 467 1235 490 1293 532 1337 22
22 39 46 37 52 -3 7 -22 -6 -43 -28z"/>
<path d="M4429 1364 c-42 -44 -87 -68 -169 -89 -81 -21 -107 -34 -156 -82 -37
-36 -62 -90 -133 -288 -2 -5 15 8 38 29 22 22 44 37 47 33 9 -9 -40 -71 -80
-102 -19 -14 -38 -38 -44 -53 -5 -15 -37 -102 -71 -193 -33 -91 -61 -180 -61
-198 0 -46 23 -93 59 -124 57 -48 162 -33 206 29 7 11 95 236 195 499 100 264
191 501 201 528 10 26 15 47 11 47 -5 0 -24 -16 -43 -36z m-289 -234 c0 -5 -4
-10 -10 -10 -5 0 -10 5 -10 10 0 6 5 10 10 10 6 0 10 -4 10 -10z m115 -121 c0
-7 -8 -15 -17 -17 -18 -3 -25 18 -11 32 10 10 28 1 28 -15z m-151 -115 c31
-30 8 -69 -36 -62 -30 4 -38 46 -12 65 23 17 29 16 48 -3z m-86 -111 c-2 -10
-10 -18 -18 -18 -8 0 -16 8 -18 18 -2 12 3 17 18 17 15 0 20 -5 18 -17z m92
-183 c0 -5 -4 -10 -10 -10 -5 0 -10 5 -10 10 0 6 5 10 10 10 6 0 10 -4 10 -10z"/>
</g>
</svg>
