<?xml version="1.0" standalone="no"?>
<!DOCTYPE svg PUBLIC "-//W3C//DTD SVG 20010904//EN"
 "http://www.w3.org/TR/2001/REC-SVG-20010904/DTD/svg10.dtd">
<svg version="1.0" xmlns="http://www.w3.org/2000/svg"
 width="452.000000pt" height="152.000000pt" viewBox="0 0 452.000000 152.000000"
 preserveAspectRatio="xMidYMid meet">

<g transform="translate(0.000000,152.000000) scale(0.100000,-0.100000)"
fill="#000000" stroke="none">
<path d="M435 1136 c-116 -67 -209 -125 -207 -129 1 -4 2 -118 2 -254 l1 -248
214 -123 215 -124 0 -128 0 -129 106 61 106 61 72 -38 c39 -21 89 -48 111 -61
l40 -23 110 63 110 64 3 506 c1 278 1 506 -1 506 -2 0 -51 -27 -108 -60 -57
-33 -108 -60 -113 -60 -5 0 -103 54 -218 120 -114 66 -213 120 -220 119 -7 0
-107 -56 -223 -123z m333 -198 c69 -41 90 -57 80 -65 -7 -5 -52 -32 -100 -59
l-87 -49 -3 -122 -3 -121 -102 56 -102 57 -1 122 0 121 103 60 c56 33 107 59
112 57 6 -1 52 -27 103 -57z"/>
<path d="M1979 1151 l-29 -29 0 -168 0 -167 -23 21 c-12 11 -38 28 -57 36
-137 57 -279 4 -348 -128 -37 -73 -43 -207 -13 -287 42 -111 134 -173 256
-173 75 0 118 15 168 62 l27 26 0 -37 0 -37 53 0 c64 0 93 18 107 68 6 23 10
193 10 440 l0 402 -61 0 c-54 0 -64 -3 -90 -29z m-73 -472 c37 -34 54 -72 54
-119 0 -93 -56 -150 -146 -150 -91 0 -146 56 -146 150 0 98 58 154 154 147 44
-2 64 -9 84 -28z"/>
<path d="M4228 1014 c-38 -20 -48 -43 -48 -108 0 -55 0 -56 -29 -56 -47 0 -82
-37 -88 -93 l-6 -47 62 0 61 0 0 -168 c0 -144 3 -172 18 -202 27 -50 86 -80
171 -87 114 -9 151 18 151 112 l0 44 -52 -6 c-44 -4 -58 -2 -80 17 l-28 21 0
135 0 134 45 0 c61 0 104 38 112 98 l6 42 -82 0 -81 0 0 90 0 90 -52 0 c-29
-1 -65 -7 -80 -16z"/>
<path d="M2549 860 c-40 -12 -76 -39 -98 -73 l-21 -32 0 48 0 47 -61 0 c-54 0
-64 -3 -90 -29 l-29 -29 0 -261 0 -261 56 0 c108 0 124 27 124 207 0 102 4
135 18 163 25 50 72 72 150 68 l62 -4 0 77 c0 61 -3 78 -16 83 -20 8 -62 6
-95 -4z"/>
<path d="M2899 852 c-37 -10 -85 -30 -108 -45 l-42 -28 30 -38 c52 -65 54 -66
101 -32 54 39 116 49 164 26 33 -16 66 -58 66 -83 0 -5 -41 -13 -91 -17 -170
-13 -248 -44 -288 -115 -30 -54 -27 -140 8 -188 67 -95 255 -106 340 -21 l31
31 0 -36 0 -36 54 0 c45 0 58 4 81 27 l27 27 -4 191 c-3 171 -6 194 -25 230
-42 79 -99 111 -210 120 -48 4 -88 0 -134 -13z m211 -366 c0 -68 -80 -125
-157 -113 -92 15 -100 101 -13 136 14 5 58 10 98 10 l72 1 0 -34z"/>
<path d="M3686 855 c-21 -7 -54 -28 -72 -46 l-34 -33 0 37 0 37 -51 0 c-52 0
-85 -12 -106 -39 -9 -12 -12 -88 -13 -278 l0 -263 59 0 c50 0 62 4 85 26 25
26 26 30 26 150 0 139 13 214 40 239 11 10 39 20 63 22 36 4 48 1 73 -20 l29
-25 3 -196 3 -196 64 0 c58 0 65 2 89 31 26 30 26 32 26 203 0 129 -4 186 -16
227 -21 70 -66 114 -134 128 -65 14 -86 13 -134 -4z"/>
</g>
</svg>
