<?xml version="1.0" standalone="no"?>
<!DOCTYPE svg PUBLIC "-//W3C//DTD SVG 20010904//EN"
 "http://www.w3.org/TR/2001/REC-SVG-20010904/DTD/svg10.dtd">
<svg version="1.0" xmlns="http://www.w3.org/2000/svg"
 width="474.000000pt" height="316.000000pt" viewBox="0 0 474.000000 316.000000"
 preserveAspectRatio="xMidYMid meet">

<g transform="translate(0.000000,316.000000) scale(0.100000,-0.100000)"
fill="#000000" stroke="none">
<path d="M1403 1693 c9 -2 23 -2 30 0 6 3 -1 5 -18 5 -16 0 -22 -2 -12 -5z"/>
<path d="M1620 1655 c14 -8 30 -14 35 -14 6 0 -1 6 -15 14 -14 8 -29 14 -35
14 -5 0 1 -6 15 -14z"/>
<path d="M1215 1600 c-10 -11 -16 -22 -14 -24 2 -2 12 7 22 20 22 29 17 32 -8
4z"/>
<path d="M2320 1591 c-42 -17 -47 -24 -78 -94 -42 -97 -72 -216 -72 -284 0
-47 4 -59 29 -84 45 -44 106 -34 173 28 l26 25 15 -29 c17 -32 54 -53 95 -53
33 0 102 31 121 53 16 20 31 22 31 4 0 -22 44 -57 72 -57 26 0 73 30 97 64 13
18 15 17 25 -14 26 -78 74 -66 183 46 45 46 87 84 93 84 6 0 1 -18 -10 -40
-11 -21 -20 -53 -20 -70 0 -31 29 -70 53 -70 15 0 75 36 105 63 l22 20 0 -36
c0 -43 5 -47 47 -35 29 8 31 11 38 70 7 56 12 67 55 112 27 28 52 47 56 43 4
-4 -2 -35 -14 -70 -45 -127 -19 -187 66 -151 47 19 92 62 92 87 0 17 -5 15
-35 -12 -63 -55 -70 -36 -29 86 27 79 24 116 -10 129 -19 7 -69 -19 -117 -63
-44 -40 -44 -40 -25 15 8 22 12 42 10 45 -3 3 -22 0 -44 -5 -36 -9 -40 -14
-59 -71 -12 -33 -21 -69 -21 -78 0 -23 -66 -80 -85 -73 -22 9 -19 44 11 127
14 39 28 80 31 90 9 30 -23 19 -51 -18 -15 -19 -35 -39 -46 -45 -17 -9 -19 -6
-17 32 2 38 -1 43 -21 46 -29 4 -51 -14 -69 -56 -12 -30 -12 -37 2 -58 15 -23
13 -25 -28 -69 -80 -83 -96 -53 -51 93 14 46 23 87 20 90 -3 3 -24 -3 -46 -13
-37 -17 -41 -17 -58 -2 -27 24 -69 21 -119 -9 -45 -26 -103 -102 -103 -135 0
-9 -16 -31 -35 -48 -44 -39 -96 -42 -119 -9 -22 31 -21 33 26 49 54 18 108 69
108 103 0 36 -33 66 -72 66 -65 0 -149 -74 -164 -144 -7 -36 -37 -72 -78 -93
-25 -13 -30 -13 -43 0 -8 7 -14 33 -15 55 0 34 7 51 36 86 71 87 110 200 92
270 -7 30 -16 31 -76 7z m41 -93 c-15 -50 -56 -134 -70 -143 -11 -6 19 110 44
169 12 28 19 36 27 28 8 -8 8 -23 -1 -54z m200 -140 c3 -35 -5 -55 -29 -75
-35 -30 -42 -29 -42 6 0 47 67 112 71 69z m305 -13 c9 -35 -22 -117 -56 -150
-25 -24 -31 -26 -46 -14 -28 23 -3 128 41 173 25 24 54 20 61 -9z"/>
<path d="M1731 1593 c0 -4 22 -26 47 -48 29 -26 39 -31 27 -15 -22 29 -75 75
-74 63z"/>
<path d="M1836 1477 c3 -10 9 -15 12 -12 3 3 0 11 -7 18 -10 9 -11 8 -5 -6z"/>
<path d="M1152 1320 c0 -14 2 -19 5 -12 2 6 2 18 0 25 -3 6 -5 1 -5 -13z"/>
<path d="M1891 1284 c0 -11 3 -14 6 -6 3 7 2 16 -1 19 -3 4 -6 -2 -5 -13z"/>
<path d="M1892 1130 c0 -14 2 -19 5 -12 2 6 2 18 0 25 -3 6 -5 1 -5 -13z"/>
<path d="M1295 1050 c3 -5 8 -10 11 -10 2 0 4 5 4 10 0 6 -5 10 -11 10 -5 0
-7 -4 -4 -10z"/>
<path d="M1871 1044 c0 -11 3 -14 6 -6 3 7 2 16 -1 19 -3 4 -6 -2 -5 -13z"/>
<path d="M1320 1026 c0 -2 7 -7 16 -10 8 -3 12 -2 9 4 -6 10 -25 14 -25 6z"/>
<path d="M1851 997 c-13 -21 -12 -21 5 -5 10 10 16 20 13 22 -3 3 -11 -5 -18
-17z"/>
</g>
</svg>
