<?xml version="1.0" standalone="no"?>
<!DOCTYPE svg PUBLIC "-//W3C//DTD SVG 20010904//EN"
 "http://www.w3.org/TR/2001/REC-SVG-20010904/DTD/svg10.dtd">
<svg version="1.0" xmlns="http://www.w3.org/2000/svg"
 width="1926.000000pt" height="512.000000pt" viewBox="0 0 1926.000000 512.000000"
 preserveAspectRatio="xMidYMid meet">

<g transform="translate(0.000000,512.000000) scale(0.100000,-0.100000)"
fill="#000000" stroke="none">
<path d="M10778 3430 c-54 -29 -81 -73 -86 -142 -5 -70 9 -108 54 -148 84 -73
227 -64 297 19 34 41 41 67 35 137 -5 64 -28 99 -84 131 -52 30 -162 31 -216
3z"/>
<path d="M2278 3401 c-49 -16 -94 -50 -124 -92 -41 -59 -46 -155 -12 -219 28
-52 95 -104 121 -94 9 3 32 28 52 55 39 55 65 62 133 34 70 -30 102 3 102 106
0 79 -37 145 -103 183 -47 27 -127 40 -169 27z"/>
<path d="M3368 3401 c-92 -30 -158 -117 -158 -207 0 -58 23 -124 44 -124 7 0
33 7 56 15 75 26 96 21 135 -34 20 -27 43 -52 52 -55 24 -9 74 25 108 73 27
39 30 50 30 120 0 68 -3 83 -27 119 -49 74 -163 118 -240 93z"/>
<path d="M5750 2590 l0 -690 180 0 180 0 2 273 3 272 205 0 205 0 3 -272 2
-273 180 0 180 0 0 690 0 690 -180 0 -180 0 -2 -257 -3 -258 -205 0 -205 0 -3
258 -2 257 -180 0 -180 0 0 -690z"/>
<path d="M14160 2590 l0 -690 180 0 180 0 0 250 0 250 230 0 230 0 0 155 0
155 -230 0 -230 0 0 130 0 130 265 0 265 0 0 155 0 155 -445 0 -445 0 0 -690z"/>
<path d="M8657 2965 c-87 -24 -154 -64 -209 -124 -65 -69 -88 -132 -88 -235 0
-99 21 -156 86 -225 l53 -58 -30 -29 c-103 -97 -114 -226 -29 -318 l39 -43
-44 -31 c-143 -100 -138 -281 9 -367 118 -69 385 -91 570 -46 225 54 361 176
374 336 6 82 -16 150 -66 197 -78 75 -130 88 -389 97 -242 9 -263 15 -263 76
0 18 5 37 12 41 6 4 61 6 122 5 220 -4 367 75 416 224 15 44 19 164 7 208 l-7
27 75 0 75 0 0 129 0 130 -217 5 c-120 4 -270 8 -333 10 -78 3 -130 0 -163 -9z
m207 -236 c42 -19 59 -66 54 -147 -3 -62 -7 -76 -31 -100 -22 -22 -36 -27 -76
-27 -80 0 -113 43 -113 146 0 61 12 94 46 121 24 20 83 23 120 7z m144 -895
c32 -13 41 -39 26 -79 -13 -33 -84 -58 -179 -63 -143 -7 -225 27 -225 92 0 17
6 41 14 52 14 19 23 20 173 16 100 -3 170 -9 191 -18z"/>
<path d="M9813 2965 c-118 -32 -210 -98 -255 -182 -32 -58 -52 -161 -43 -223
9 -66 60 -164 105 -203 l39 -33 -40 -40 c-52 -49 -78 -106 -79 -166 0 -63 14
-95 62 -145 l40 -41 -29 -15 c-36 -19 -100 -89 -113 -123 -28 -71 -2 -171 57
-225 85 -79 275 -119 478 -99 134 12 182 24 282 70 148 69 225 172 227 305 1
123 -56 202 -179 247 -51 18 -91 22 -270 28 -115 4 -222 12 -237 18 -31 13
-43 46 -30 82 9 24 10 25 125 21 172 -4 286 35 366 125 56 64 75 131 69 246
l-5 88 73 0 74 0 0 129 0 129 -222 6 c-123 4 -272 8 -333 11 -77 3 -126 0
-162 -10z m216 -241 c72 -51 67 -220 -8 -258 -64 -33 -129 -11 -155 54 -29 72
-15 164 31 200 32 25 99 27 132 4z m98 -880 c109 -13 94 -105 -22 -140 -63
-18 -178 -18 -244 2 -42 12 -55 21 -68 48 -14 30 -14 36 1 68 l17 35 137 -4
c75 -2 156 -6 179 -9z"/>
<path d="M11853 2966 c-51 -17 -104 -47 -165 -98 -26 -21 -49 -35 -51 -31 -2
5 -7 26 -11 48 -14 81 -1 75 -167 75 l-149 0 0 -530 0 -530 185 0 185 0 0 349
0 349 40 32 c78 62 173 60 208 -3 15 -28 17 -74 20 -379 l4 -348 179 0 179 0
0 358 c0 196 -5 386 -10 422 -21 138 -110 263 -208 290 -51 14 -188 11 -239
-4z"/>
<path d="M12813 2965 c-118 -32 -210 -98 -255 -182 -32 -58 -52 -161 -43 -223
9 -66 60 -164 105 -203 l39 -33 -40 -40 c-52 -49 -78 -106 -79 -166 0 -63 14
-95 62 -145 l40 -41 -29 -15 c-36 -19 -100 -89 -113 -123 -28 -71 -2 -171 57
-225 85 -79 275 -119 478 -99 134 12 182 24 282 70 148 69 225 172 227 305 1
123 -56 202 -179 247 -51 18 -91 22 -270 28 -115 4 -222 12 -237 18 -31 13
-43 46 -30 82 9 24 10 25 125 21 172 -4 286 35 366 125 56 64 75 131 69 246
l-5 88 73 0 74 0 0 129 0 129 -222 6 c-123 4 -272 8 -333 11 -77 3 -126 0
-162 -10z m216 -241 c72 -51 67 -220 -8 -258 -64 -33 -129 -11 -155 54 -29 72
-15 164 31 200 32 25 99 27 132 4z m98 -880 c109 -13 94 -105 -22 -140 -63
-18 -178 -18 -244 2 -42 12 -55 21 -68 48 -14 30 -14 36 1 68 l17 35 137 -4
c75 -2 156 -6 179 -9z"/>
<path d="M15495 2973 c-72 -15 -172 -50 -243 -85 l-82 -40 61 -117 c34 -64 63
-117 64 -119 1 -1 31 11 66 27 167 78 292 76 335 -5 12 -21 15 -37 9 -42 -6
-5 -50 -14 -100 -21 -49 -7 -130 -26 -180 -42 -200 -67 -285 -165 -285 -330 0
-133 73 -252 182 -299 45 -19 65 -22 147 -18 104 5 142 18 232 84 51 37 59 40
59 22 0 -7 5 -30 11 -50 l10 -38 149 0 150 0 0 303 c0 420 -15 522 -90 626
-76 105 -190 152 -364 150 -61 -1 -120 -3 -131 -6z m215 -676 c0 -67 -2 -75
-28 -101 -62 -58 -167 -56 -193 6 -11 27 -10 35 7 66 22 42 59 66 134 86 83
22 80 25 80 -57z"/>
<path d="M16643 2956 c-172 -57 -296 -173 -355 -332 -18 -49 -22 -82 -22 -194
-1 -144 8 -188 62 -295 54 -107 196 -215 322 -244 60 -14 216 -14 282 0 56 12
147 54 187 86 l24 20 -67 116 c-38 65 -69 117 -69 117 -1 0 -29 -14 -61 -30
-70 -36 -138 -40 -194 -11 -47 24 -66 45 -92 104 -44 99 -34 232 22 318 50 75
179 104 250 55 l35 -23 83 114 c96 133 96 128 -23 184 -67 32 -80 34 -192 36
-104 3 -129 0 -192 -21z"/>
<path d="M17548 2957 c-162 -56 -288 -193 -333 -363 -19 -71 -21 -249 -4 -320
44 -184 187 -331 370 -379 81 -22 239 -19 327 5 80 22 212 84 212 100 0 12
-110 210 -116 210 -3 0 -19 -7 -37 -17 -46 -24 -125 -43 -178 -43 -57 0 -138
24 -173 51 -25 20 -66 87 -66 109 0 7 99 10 299 10 l299 0 6 23 c12 45 6 233
-9 292 -45 172 -147 286 -294 329 -83 24 -220 21 -303 -7z m261 -281 c24 -23
57 -103 47 -113 -2 -2 -73 -2 -159 -1 l-157 3 24 51 c18 40 33 56 67 73 62 31
138 25 178 -13z"/>
<path d="M7160 2583 c0 -407 5 -454 54 -551 31 -60 89 -114 149 -137 36 -14
67 -16 144 -13 116 5 174 30 259 110 60 56 55 59 72 -42 l8 -45 147 -3 147 -3
0 531 0 530 -180 0 -180 0 0 -344 0 -345 -33 -34 c-60 -64 -159 -71 -201 -13
-20 26 -21 41 -24 382 l-3 354 -179 0 -180 0 0 -377z"/>
<path d="M10700 2430 l0 -530 185 0 185 0 0 530 0 530 -185 0 -185 0 0 -530z"/>
<path d="M2343 2688 c-38 -45 -14 -192 52 -326 101 -203 264 -302 497 -302
163 0 287 48 390 152 101 102 169 260 172 399 2 111 -12 112 -210 20 -286
-133 -423 -134 -702 -1 -142 67 -182 79 -199 58z"/>
</g>
</svg>
